/* XPM */
static char *image_xpm[] = {
/* width height ncolors chars_per_pixel */
"32 32 179 2",
"   c #101010",
" . c #303030",
" + c #c0bfc0",
" @ c #808080",
" # c #d0d0d0",
" $ c #404040",
" % c #f0f0f0",
" & c #c0c0c0",
" * c #202020",
" = c #020202",
" - c #030303",
" ; c #f7f7f7",
" > c #ededed",
" , c #9c9b9b",
" ' c #040404",
" ) c #050505",
" ! c #807f7f",
" ~ c #ececec",
" { c #060606",
" ] c #6e6d6d",
" ^ c #f2f2f2",
" / c #070707",
" ( c #2a2a2a",
" _ c #7f7f7f",
" : c #f9f9f9",
" < c #c6c6c6",
" [ c #080808",
" } c #484848",
" | c #888888",
" 1 c #c8c8c8",
" 2 c #333232",
" 3 c #3b3b3b",
" 4 c #6d6d6d",
" 5 c #090909",
" 6 c #3e3e3e",
" 7 c #ffffff",
" 8 c #111111",
" 9 c #d5d4d5",
" 0 c #b7b7b7",
" a c #393939",
" b c #dddddd",
" c c #b3b3b3",
" d c #8e8d8d",
" e c #0a0a0a",
" f c #2d2d2d",
" g c #535252",
" h c #bdbdbd",
" i c #151515",
" j c #cbcaca",
" k c #4b4a4a",
" l c #717171",
" m c #c3c3c3",
" n c #1f1f1f",
" o c #4a4949",
" p c #1a1a1a",
" q c #a3a3a3",
" r c #7a7a7a",
" s c #0b0b0b",
" t c #a09e9f",
" u c #343434",
" v c #868485",
" w c #353535",
" x c #2f2f2f",
" y c #525151",
" z c #8a8989",
" A c #1c1c1c",
" B c #d7d7d7",
" C c #f1f1f1",
" D c #252525",
" E c #4f4f4f",
" F c #e7e7e7",
" G c #d8d8d8",
" H c #181818",
" I c #c2c1c2",
" J c #828282",
" K c #8d8d8d",
" L c #333333",
" M c #b8b7b7",
" N c #242424",
" O c #6d6c6c",
" P c #262626",
" Q c #2b2b2b",
" R c #3d3d3d",
" S c #a9a9a9",
" T c #0c0c0c",
" U c #121212",
" V c #555454",
" W c #929191",
" X c #ebebeb",
" Y c #868686",
" Z c #363636",
" ` c #b9b8b9",
".  c #949494",
".. c #bbbaba",
".+ c #4d4d4d",
".@ c #232323",
".# c #979696",
".$ c #272727",
".% c #858384",
".& c #7c7c7c",
".* c #737171",
".= c #f6f6f6",
".- c #797979",
".; c #323232",
".> c #0d0d0d",
"., c #656565",
".' c #e1e0e1",
".) c #bebebe",
".! c #cecdcd",
".~ c #979797",
".{ c #f4f4f4",
".] c #1e1e1e",
".^ c #222222",
"./ c #161616",
".( c #959595",
"._ c #dcdcdc",
".: c #525252",
".< c #3d3c3c",
".[ c #8a8a8a",
".} c #696969",
".| c #676666",
".1 c #282828",
".2 c #e8e8e8",
".3 c #e3e2e2",
".4 c #3a3a3a",
".5 c #444344",
".6 c #e4e4e4",
".7 c #898888",
".8 c #fbfbfb",
".9 c #8b8b8b",
".0 c #0e0e0e",
".a c #131313",
".b c #878787",
".c c #fdfdfd",
".d c #565555",
".e c #fafafa",
".f c #8d8c8c",
".g c #7c7b7c",
".h c #515151",
".i c #fefefe",
".j c #c3c2c2",
".k c #2e2e2e",
".l c #d9d8d8",
".m c #444444",
".n c #575757",
".o c #212121",
".p c #6a6a6a",
".q c #2c2c2c",
".r c #929292",
".s c #1b1b1b",
".t c #191919",
".u c #9e9d9d",
".v c #b6b6b6",
".w c #616161",
".x c #0f0f0f",
".y c #292929",
".z c #b4b4b4",
".A c #cdcccc",
".B c #4e4e4e",
".C c #bdbcbc",
".D c #383838",
".E c #e5e5e5",
".F c #a4a4a4",
".G c #c9c8c8",
".H c #b7b6b6",
".I c #e1e1e1",
".J c #4a4a4a",
".K c #797879",
".L c #141414",
".M c #1d1d1d",
".N c #5b5a5a",
".O c #9e9e9e",
".P c #171717",
".Q c #969696",
".R c #bebdbd",
".S c #fcfcfc",
".T c #686768",
".U c #d2d2d2",
".V c #767475",
" 7 7 7 7 7 7 7 7 7 7 7 7 7 7 7 7 7 7 7 7 7 7 7 7 7 7 7 7 7 7 7 7",
" 7 7 7 7 7 7 7 7 7 7 7 7 7 7 7 7 7 7 7 7 7 7 7 7 7 7 7 7 7 7 7 7",
" 7 ;.p.x / [ [ [ [ [ [ [ [ [ [ [ [ [ [ [ [ [ [ [ [ [ [ [ /.x.}.i",
" 7 l {.o ( ( ( ( ( ( ( ( ( ( ( ( ( ( ( ( ( ( ( ( ( ( ( ( (.o {.U",
" 7.1   i i i i i i i i i i i i i i i i i i i i i i i i i i i   0",
" 7 N s ' ' ' ' ' ' ' ' ' ' ' ' ' ' ' ' ' ' ' ' ' ' ' ' ' ' ' '.v",
" 7 Z   = = = n V.d.d.4.x.h.d.d.J / o.d.d y U a.d.d.d.D = = = = h",
" 7.B.L ) - - !.& 2 2 . g.O 2 2 + } I.+.+ }./...,.+.[ @ - - - - <",
" 7 4  .0 ' '.9 4 ' ' '.N.u ' '.! x ].g.g.C E j d.g S.9 ' ' ' - #",
" 7. .> 8 5 ).| M q q.K R h q q.) D.r q q.R $.z p ) O | ) ) ) ' b",
" 7 m [.0.x / / / / / / / / / / / / / / / / / / / / / / / / / - X",
" 7.= [ s.0.0 [ [ [ [ [ [ [ [ [ [ [ [ [ [ [ [ [ [ [ [ [ [ [ [ '.S",
" 7 7 6 5 T.x.> 5 5 5 5 5 5 5 5 5 5.s.T $ 5 5 5 5 5 5 5 5 5 5.; 7",
" 7 7.b [ s T.x.0 i h m m m m m m <.E E # m m m m.L s s s s [.- 7",
" 7 7 G ) T T.>.x 8.' ~ ~ ~ ~ ~ ~ ~.2 J.I ~ ~ ~ 9 T T T T T { 1 7",
" 7 7 7 L.>.0.0.0.x.F.3._ 1 1 1 1 1 1 1 1 1.A.3.Q.0.0.0.0.0.^ 7 7",
" 7 7 7.~ e.x.x.x.x.n.l < 8.x.x.x.x.x.x.x.x  .G.J.x.x.x.x s J 7 7",
" 7 7 7.{.L 8 8 8 8./ `.! }.a 8 8 8 8 8 8 8 8 W.a 8 8 8 8 s F 7 7",
" 7 7 7 7 _.0.a.a.a.a.d.j.#./ H.P i.a.a.a.a.a w.a.a.a.a.x., 7 7 7",
" 7 7 7 7 %.P.L.L.L.L i.f.H k./.t A.].].M.M A.M.].o D Q f.6 7 7 7",
" 7 7 7 7 7.(.0././././ D , t.1.P p A n.o N.$.y.q x ..k Y 7 7 7 7",
" 7 7 7 7 7.c.D./ H H H H.;.#.7 D H p.M n.^ D.$ (.q.k a.{ 7 7 7 7",
" 7 7 7 7 7 7 B 8.t p p p p u z.%.<.y 3.] n.^ D.1 (.o & 7 7 7 7 7",
" 7 7 7 7 7 7 7.O.0.s.s.s.s.s.q.V v.*.y A.] *.@ P * _ 7 7 7 7 7 7",
" 7 7 7 7 7 7 7 7 4.a.M.M.M.M.M.^.5 *.M.M.M.].o.M E.S 7 7 7 7 7 7",
" 7 7 7 7 7 7 7 7.c.:./ n n n n n n n n n n n p.D ^ 7 7 7 7 7 7 7",
" 7 7 7 7 7 7 7 7 7.e E./.o.o.o.o.o.o.o.o.o.t u > 7 7 7 7 7 7 7 7",
" 7 7 7 7 7 7 7 7 7 7.8.w.a.^.@.@.@.@.@.@./.m C 7 7 7 7 7 7 7 7 7",
" 7 7 7 7 7 7 7 7 7 7 7 7 K.x.o N N N.^.x l.8 7 7 7 7 7 7 7 7 7 7",
" 7 7 7 7 7 7 7 7 7 7 7 7 7 1.y.P D H *.v 7 7 7 7 7 7 7 7 7 7 7 7",
" 7 7 7 7 7 7 7 7 7 7 7 7 7 7.S 0 r c : 7 7 7 7 7 7 7 7 7 7 7 7 7",
" 7 7 7 7 7 7 7 7 7 7 7 7 7 7 7 7 7 7 7 7 7 7 7 7 7 7 7 7 7 7 7 7",
};