/* XPM */
static char *image_xpm[] = {
/* width height ncolors chars_per_pixel */
"64 64 256 2",
"   c #303030",
" . c #909090",
" + c #101010",
" @ c #414040",
" # c #707070",
" $ c #505050",
" % c #c1c0c0",
" & c #202020",
" * c #808080",
" = c #e0e0e0",
" - c #c0c0c0",
" ; c #d0d0d0",
" > c #606060",
" , c #b0b0b0",
" ' c #010101",
" ) c #020202",
" ! c #3a3939",
" ~ c #030303",
" { c #f7f7f7",
" ] c #bababa",
" ^ c #ededed",
" / c #9c9b9b",
" ( c #040404",
" _ c #999898",
" : c #343333",
" < c #bcbbbb",
" [ c #666565",
" } c #dcdbdb",
" | c #050505",
" 1 c #b7b6b7",
" 2 c #8e8e8e",
" 3 c #3f3f3f",
" 4 c #c0bfbf",
" 5 c #aeacad",
" 6 c #757374",
" 7 c #b4b3b3",
" 8 c #060606",
" 9 c #9f9e9e",
" 0 c #c5c4c5",
" a c #f2f2f2",
" b c #6b6b6b",
" c c #070707",
" d c #666666",
" e c #2a2a2a",
" f c #575656",
" g c #7f7f7f",
" h c #f9f9f9",
" i c #5c5c5c",
" j c #9c9a9b",
" k c #080808",
" l c #484848",
" m c #767676",
" n c #aeaeae",
" o c #bfbfbf",
" p c #646464",
" q c #c1c1c1",
" r c #3b3b3b",
" s c #969494",
" t c #f3f3f3",
" u c #373636",
" v c #828181",
" w c #e2e2e2",
" x c #bab9b9",
" y c #6d6d6d",
" z c #090909",
" A c #ffffff",
" B c #424242",
" C c #a2a1a1",
" D c #111111",
" E c #454545",
" F c #d4d4d4",
" G c #393939",
" H c #838181",
" I c #dddddd",
" J c #cecece",
" K c #8e8d8d",
" L c #0a0a0a",
" M c #2d2d2d",
" N c #212020",
" O c #151515",
" P c #595858",
" Q c #696868",
" R c #c4c4c4",
" S c #cbcaca",
" T c #717171",
" U c #c3c3c3",
" V c #1f1f1f",
" W c #545353",
" X c #646363",
" Y c #7c7a7b",
" Z c #9b9a9b",
" ` c #565656",
".  c #1a1a1a",
".. c #919191",
".+ c #cdcdcd",
".@ c #a3a3a3",
".# c #7b7b7b",
".$ c #5f5f5f",
".% c #7a7a7a",
".& c #a4a3a4",
".* c #0b0b0b",
".= c #eeeeee",
".- c #343434",
".; c #cbcbcb",
".> c #353535",
"., c #2f2f2f",
".' c #d6d5d5",
".) c #dadada",
".! c #8a8989",
".~ c #1c1c1c",
".{ c #f5f5f5",
".] c #757474",
".^ c #f1f1f1",
"./ c #252525",
".( c #9f9f9f",
"._ c #161515",
".: c #686767",
".< c #4f4f4f",
".[ c #e7e7e7",
".} c #7e7e7e",
".| c #bfbebe",
".1 c #858585",
".2 c #181818",
".3 c #828282",
".4 c #a3a2a2",
".5 c #8d8d8d",
".6 c #474747",
".7 c #242424",
".8 c #aaa9a9",
".9 c #262626",
".0 c #aeadad",
".a c #999999",
".b c #2b2b2b",
".c c #dfdfdf",
".d c #777777",
".e c #a9a9a9",
".f c #0c0c0c",
".g c #121212",
".h c #ebebeb",
".i c #434343",
".j c #d0cfd0",
".k c #4e4c4d",
".l c #d3d3d3",
".m c #afafaf",
".n c #979595",
".o c #949494",
".p c #4d4d4d",
".q c #aaaaaa",
".r c #b2b1b1",
".s c #232323",
".t c #787576",
".u c #272727",
".v c #7c7c7c",
".w c #8e8c8c",
".x c #201f1f",
".y c #a9a8a8",
".z c #848484",
".A c #323232",
".B c #abaaaa",
".C c #adacac",
".D c #0d0d0d",
".E c #bebebe",
".F c #d1d0d0",
".G c #bab9ba",
".H c #969495",
".I c #8a8788",
".J c #f4f4f4",
".K c #1e1e1e",
".L c #222222",
".M c #161616",
".N c #888788",
".O c #dcdcdc",
".P c #525252",
".Q c #dbdadb",
".R c #373737",
".S c #5e5d5e",
".T c #696969",
".U c #282828",
".V c #e8e8e8",
".W c #b3b2b2",
".X c #3a3a3a",
".Y c #e4e4e4",
".Z c #888687",
".` c #fbfbfb",
"+  c #d6d6d6",
"+. c #343334",
"++ c #8b8b8b",
"+@ c #0e0e0e",
"+# c #131313",
"+$ c #878787",
"+% c #fdfdfd",
"+& c #c7c6c6",
"+* c #b6b5b5",
"+= c #b5b5b5",
"+- c #565555",
"+; c #fafafa",
"+> c #d9d9d9",
"+, c #a5a5a5",
"+' c #313131",
"+) c #e3e3e3",
"+! c #3c3c3c",
"+~ c #fefefe",
"+{ c #ababab",
"+] c #9e9c9d",
"+^ c #2e2e2e",
"+/ c #d9d8d8",
"+( c #e9e8e8",
"+_ c #575757",
"+: c #858484",
"+< c #a6a6a6",
"+[ c #212121",
"+} c #676767",
"+| c #eae9ea",
"+1 c #626262",
"+2 c #949393",
"+3 c #2c2c2c",
"+4 c #929292",
"+5 c #9d9c9c",
"+6 c #1b1b1b",
"+7 c #b9b9b9",
"+8 c #191919",
"+9 c #0f0f0f",
"+0 c #292929",
"+a c #b4b4b4",
"+b c #7d7d7d",
"+c c #d7d6d6",
"+d c #838383",
"+e c #4e4e4e",
"+f c #bdbcbc",
"+g c #a1a1a1",
"+h c #383838",
"+i c #f8f8f8",
"+j c #787878",
"+k c #6c6b6b",
"+l c #737272",
"+m c #e5e5e5",
"+n c #a8a7a7",
"+o c #c9c8c8",
"+p c #908e8e",
"+q c #6f6f6f",
"+r c #918f8f",
"+s c #8c8c8c",
"+t c #8f8e8f",
"+u c #6e6e6e",
"+v c #141414",
"+w c #1d1d1d",
"+x c #dbdada",
"+y c #5b5a5a",
"+z c #171717",
"+A c #a2a2a2",
"+B c #969696",
"+C c #494949",
"+D c #615f60",
"+E c #5b5b5b",
"+F c #fcfcfc",
"+G c #4b4b4b",
" A A A A A A A A A A A A A A A A A A A A A A A A A A A A A A A A A A A A A A A A A A A A A A A A A A A A A A A A A A A A A A A A",
" A A A A A A A A A A A A A A A A A A A A A A A A A A A A A A A A A A A A A A A A A A A A A A A A A A A A A A A A A A A A A A A A",
" A A A A A A A A A A A A A A A A A A A A A A A A A A A A A A A A A A A A A A A A A A A A A A A A A A A A A A A A A A A A A A A A",
" A A A a+d M z ( ( ( ( ( ( ( ( ( ( ( ( ( ( ( ( ( ( ( ( ( ( ( ( ( ( ( ( ( ( ( ( ( ( ( ( ( ( ( ( ( ( ( ( ( ( ( ( ( z M.3 a A A A A",
" A A.).s ' ' ' z.D.D.D.D.D.D.D.D.D.D.D.D.D.D.D.D.D.D.D.D.D.D.D.D.D.D.D.D.D.D.D.D.D.D.D.D.D.D.D.D.D.D.D.D.D.D.D z ' ' '.L+> A A A",
" A h.u ' '+# e                                                                                                   e+# ' '.s.J A A",
" A o+@ '.M.7.7.7.7.7.7.7.7.7.7.7.7.7.7.7.7.7.7.7.7.7.7.7.7.7.7.7.7.7.7.7.7.7.7.7.7.7.7.7.7.7.7.7.7.7.7.7.7.7.7.7.7.7.M ' '+$ A A",
" A . O z. . . . . . . . . . . . . . . . . . . . . . . . . . . . . . . . . . . . . . . . . . . . . . . . . . . . . . .  L '.A A A",
" A.#+6+@ + + + + + + + + + + + + + + + + + + + + + + + + + + + + + + + + + + + + + + + + + + + + + + + + + + + + + + +.D '.D A A",
" A+b. +9 8 8 8 8 8 8 8 8 8 8 8 8 8 8 8 8 8 8 8 8 8 8 8 8 8 8 8 8 8 8 8 8 8 8 8 8 8 8 8 8 8 8 8 8 8 8 8 8 8 8 8 8 8 8 8 8 ' D A A",
" A.1+z.g ' ' ' ' ' ' ' ' ' ' ' ' ' ' ' ' ' ' ' ' ' ' ' ' ' ' ' ' ' ' ' ' ' ' ' ' ' ' ' ' ' ' ' ' ' ' ' ' ' ' ' ' ' ' ' ' '.7 A A",
" A+4 O+z ( ' ' ' ' ' ' ' ' ' ' ' ' ' ' ' ' ' ' ' ' ' ' ' ' ' ' ' ' ' ' ' ' ' ' ' ' ' ' ' ' ' ' ' ' ' ' ' ' ' ' ' ' ' ' ' ' G A A",
" A.(+#.M.D ) ) ) ) ) ).g v+n.8.8.8.8.y+r.s ~.:.&.8.8.8.8.8+5.i ) @ /.8.8.8.8.8.& # (.x K.y.8.8.8.8.8.8 $ ) ) ) ) ) ) ) ) '.P A A",
" A.m D+v+v ~ ~ ~ ~ ~ ~ P %.0+1+1+1+1+1+1 G & % % b+1+1+1.Z %.4 ~.8 %.!+1+1+1+1+1+1 D+u %.4+1+1+1+1 n %+E ~ ~ ~ ~ ~ ~ ~ ~ ' y A A",
" A q+9.g+v.* ~ ~ ~ ~ ~.$+o+g ~ ~ ~ ~ ~ ~ ~./+o+o._ ~ ~ ~ $+o+{ ~+*+o 6+h+h+h+h+' L ~ m+o Z+h+h+h+h.0+o.$ ~ ~ ~ ~ ~ ~ ~ ~ '+s A A",
" A F.D ++#+# | ( ( ( ( X.F+n ( ( ( ( ( ( (.u.F.F+z ( ( ( W.F.W ( m.j.F.F.F.F.F.F.G +.#.F.F.F.F.F.F.F.F X ( ( ( ( ( ( ( ~ ' n A A",
" A.h.*+@ D+#.f ( ( ( (+}+/ n ( ( ( ( ( ( (+0+/+/.2 ( ( ( f+/+7 ( (.M.u.u.u.u.>+/+/+0 *+/+g.u.u.u.u 1+/+} ( ( ( ( ( ( ( ~ '.l A A",
" A A D.f + D.g c | | | p = J.N.N.N.N.N.N.6.7 = = ..N.N.N.q = < |.].N.N.N.N.N+t = =.9+: =.. | | | | 1 = b | | | | | | | ) (+i A A",
" A A+h z+@ + D+9 8 8 8 D.! <.|.|.|.|+f+B.~ 8 [+=.|.|.|.|.E.B B 8 3.e.E.|.|.|.| 1 T 8 #.a.7 8 8 8 8+5.| i 8 8 8 8 8 8 8 ).U A A A",
" A A+} 8.D+@ + D L 8 8 8 8 8 8 8 8 8 8 8 8 8 8 8 8 8 8 8 8 8 8 8 8 8 8 8 8 8 8 8 8 8 8 8 8 8 8 8 8 8 8 8 8 8 8 8 8 8 8 '+_ A A A",
" A A Z ( L.D+9 + D k c c c c c c c c c c c c c c c c c c c c c c c c c c c c c c c c c c c c c c c c c c c c c c c c 8 '.! A A A",
" A A.l ) c.*.D+9 ++9 k k k k k k k k k k k k k k k k k k k k k k k k k k k k k k k k k k k k k k k k k k k k k k k k | ' - A A A",
" A A+% D ( L.*.D+@ +.D k k k k k k k k k k k k k k k k k k k k k k k k k k k k k k k k k k k k k k k k k k k k k k k ( 8.{ A A A",
" A A A+e ) z L.f.D+9 +.f z z z z z z z z z z z z z z z z z z z z z z z z.M z z z z z z z z z z z z z z z z z z z z z ~+h A A A A",
" A A A+4 ' z L L.f.D+9 +.f L L L L L L L L L L L L L L L L L L L L.9+j.; { $ L L L L L L L L L L L L L L L L L L L z '.% A A A A",
" A A A.) ' 8 L L.*.f.D+9 +.f L L &.5+2+2+2+2+2+2+2+2+2+2+2+2+2.o 4.{ F.%.++|.o+2+2+2+2+2+2+2 E L L L L L L L L L L c ' o A A A A",
" A A A A.u (.*.*.*.*.f.D+9 +.D.*+k t t t t t t t t t t t t t t t t t+C.*.X t t t t t t t t t `.*.*.*.*.*.*.*.*.*.* | ++; A A A A",
" A A A A.d '.*.f.f.f.f.f+@+9 D+@+G.=.=.=.=.=.=.=.=.=.=.=.=.=.=.=.=.=+b.f+q.=.=.=.=.=.=.=.=.=.,.f.f.f.f.f.f.f.f.f.f )+_ A A A A A",
" A A A A.; ' z.D.D.D.D.D.D+@+9 D &+(+|+|+|+|+|+|+|+|+|+|+|+|+|+|+|+|+|.c+|+|+|+|+|+|+|+|+|.O+9.D.D.D.D.D.D.D.D.D L '.e A A A A A",
" A A A A A.9 |+@+@+@+@+@+@+@+@+9 D.E+m+m+m+m+m+m+m+m+m+m+m+m+m+m+m+m+m+m+m+m+m+m+m+m+m+m+m.@+@+@+@+@+@+@+@+@+@+@ 8.f.{ A A A A A",
" A A A A A+d '.D+@+@+@+@+@+@+@+@+9.v = = = =+=+{+{+{+{+{+{+{+{+{+{+{+{+{+{+{+{+{+{ n I = =+1+@+@+@+@+@+@+@+@+@+@ ) i A A A A A A",
" A A A A A w ( z+9+9+9+9+9+9+9+9+9.-+x } }.Q W+9+9+9+9+9+9+9+9+9+9+9+9+9+9+9+9+9+9+9 2.Q+c V+9+9+9+9+9+9+9+9+9.* '+f A A A A A A",
" A A A A A A.p ~ + + + + + + + + + +.C.'+ +c.5 + + + + + + + + + + + + + + + + + + ++}.'.H + + + + + + + + + + 8.s+~ A A A A A A",
" A A A A A A+7 '.f D D D D D D D D D ` ; ;.F+&+w+# D D D D D D D D D D D D D D D D D ` ; 3 D D D D D D D D D+9 '++ A A A A A A A",
" A A A A A A A M 8 D D D D D D D D D O.r S S S.S.M.M+v.g D D D D D D D D D D D D D D.P 9.g D D D D D D D D D z.f.= A A A A A A A",
" A A A A A A A+A '+9.g.g.g.g.g.g.g.g.g.P 0 0 0.B+z.M.2.2.M+v.g.g.g.g.g.g.g.g.g.g.g.g P+!.g.g.g.g.g.g.g.g.g D )+q A A A A A A A A",
" A A A A A A A+F.7 c+#+#+#+#+#+#+#+#+#+v _ 4 4 4+- O+z.2+8. . .2.M+#+#+#+#+#+#+#+#+#+0+#+#+#+#+#+#+#+#+#+# L.* w A A A A A A A A",
" A A A A A A A A+A ' ++v+v+v+v+v+v+v+v+v+'+* x x.8+w O+z.2. . .~+w.K+w+6+8+z O+v+v+v+v+v+v+v+v+v O.2+w.s e./ g A A A A A A A A A",
" A A A A A A A A+%+^ 8 O O O O O O O O O O > 7 7 7+l O.M+z+8. +6.~.K V+[.L.7././.7.7././.9.U.b+^+'.A.-.>+^+^.V A A A A A A A A A",
" A A A A A A A A A+7 '+9.M.M.M.M.M.M.M.M.M+z.1.0.0 5 B.M.M+z+8. +6.~.K V+[.L.7./.9.u+0 e.b M+^    +' :.A.7+s A A A A A A A A A A",
" A A A A A A A A A A.< (.M+z+z+z+z+z+z+z+z+z.L.H+n+n+] e+z+z+z+8+6.~+w.K &+[.s.7./.9.u+0 e+3 M+^    .A.u.R.J A A A A A A A A A A",
" A A A A A A A A A A.c.f.*+z+z+z+z+z+z+z+z+z+z., _ C C.w.s+z+z.2+8+6.~+w.K &+[.s.7.9.9.U+0 e+3 M.,  .b.K , A A A A A A A A A A A",
" A A A A A A A A A A A.5 '+#.2.2.2.2.2.2.2.2.2.2.R.n j j+:./.2.2.2+8+6.~+w.K &+[.s.7.9.u.U+0.b+3+^+^.K+y A A A A A A A A A A A A",
" A A A A A A A A A A A+% r |.2+8+8+8+8+8+8+8+8+8+8 !+r s s.Z+.+8+8+8. +6+[.K V &.L.s./.9.u.U e.b+3+[./.Y A A A A A A A A A A A A",
" A A A A A A A A A A A A.O+@.*. . . . . . . . . . .  u.Z+p+p.w+y : u.p [+^+w.K V+[.L.7./.9.u.U e.7.M+< A A A A A A A A A A A A A",
" A A A A A A A A A A A A A.@ '.g+6+6+6+6+6+6+6+6+6+6+6+^ Y.I.I.I.I.I 6.u+6.~+w V V+[.L.7./.u.U.9+v+1 A A A A A A A A A A A A A A",
" A A A A A A A A A A A A A A d )+z.~.~.~.~.~.~.~.~.~.~.~./ Q H H H+D+[.~.~.~.~.K V &+[.s.7.9.9+v.A.^ A A A A A A A A A A A A A A",
" A A A A A A A A A A A A A A h G (. +w+w+w+w+w+w+w+w+w+w+w.K.k.t E+w+w+w+w+w+w+w.K V &+[.s.7+v.2+  A A A A A A A A A A A A A A A",
" A A A A A A A A A A A A A A A.[ V c.~.K.K.K.K.K.K.K.K.K.K.K.K N.K.K.K.K.K.K.K.K.K.K &+[.L+v L+a A A A A A A A A A A A A A A A A",
" A A A A A A A A A A A A A A A A F D z.K.K.K.K.K.K.K.K.K.K.K.K.K.K.K.K.K.K.K.K.K.K.K V &+v |.o A A A A A A A A A A A A A A A A A",
" A A A A A A A A A A A A A A A A A R.* L V V V V V V V V V V V V V V V V V V V V V V V.g )+b A A A A A A A A A A A A A A A A A A",
" A A A A A A A A A A A A A A A A A A ] z L V & & & & & & & & & & & & & & & & & & & &.g ' T A A A A A A A A A A A A A A A A A A A",
" A A A A A A A A A A A A A A A A A A A ].* z V+[+[+[+[+[+[+[+[+[+[+[+[+[+[+[+[+[+[ + '.] A A A A A A A A A A A A A A A A A A A A",
" A A A A A A A A A A A A A A A A A A A A U D c.K.L.L.L.L.L.L.L.L.L.L.L.L.L.L.L+[.D ).z A A A A A A A A A A A A A A A A A A A A A",
" A A A A A A A A A A A A A A A A A A A A A F V (. .s.s.s.s.s.s.s.s.s.s.s.s.s V k c.( A A A A A A A A A A A A A A A A A A A A A A",
" A A A A A A A A A A A A A A A A A A A A A A.V.X )+#.7.7.7.7.7.7.7.7.7.7.7+8 (+z q A A A A A A A A A A A A A A A A A A A A A A A",
" A A A A A A A A A A A A A A A A A A A A A A A h.T ' L+[./././././././.s+9 '+!.Y A A A A A A A A A A A A A A A A A A A A A A A A",
" A A A A A A A A A A A A A A A A A A A A A A A A A.e D ~.M./.9.9.9.9.  | |.}+F A A A A A A A A A A A A A A A A A A A A A A A A A",
" A A A A A A A A A A A A A A A A A A A A A A A A A A+) l ' k+w.u.K L '.,.; A A A A A A A A A A A A A A A A A A A A A A A A A A A",
" A A A A A A A A A A A A A A A A A A A A A A A A A A A A+,.  ' 8 ' D 2.` A A A A A A A A A A A A A A A A A A A A A A A A A A A A",
" A A A A A A A A A A A A A A A A A A A A A A A A A A A A A t g+w.d ^ A A A A A A A A A A A A A A A A A A A A A A A A A A A A A A",
" A A A A A A A A A A A A A A A A A A A A A A A A A A A A A A A A A A A A A A A A A A A A A A A A A A A A A A A A A A A A A A A A",
" A A A A A A A A A A A A A A A A A A A A A A A A A A A A A A A A A A A A A A A A A A A A A A A A A A A A A A A A A A A A A A A A",
" A A A A A A A A A A A A A A A A A A A A A A A A A A A A A A A A A A A A A A A A A A A A A A A A A A A A A A A A A A A A A A A A",
};