/* XPM */
static char *image_xpm[] = {
/* width height ncolors chars_per_pixel */
"16 16 106 2",
"   c #f0f0f0",
" . c #101010",
" + c #202020",
" @ c #020202",
" # c #f7f7f7",
" $ c #bababa",
" % c #040404",
" & c #403f3f",
" * c #8e8e8e",
" = c #747474",
" - c #070707",
" ; c #666666",
" > c #7f7f7f",
" , c #777576",
" ' c #595959",
" ) c #3f3e3e",
" ! c #aeaeae",
" ~ c #c1c1c1",
" { c #3b3b3b",
" ] c #090909",
" ^ c #ffffff",
" / c #111111",
" ( c #393939",
" _ c #b3b3b3",
" : c #bcbcbc",
" < c #0a0a0a",
" [ c #2d2d2d",
" } c #151515",
" | c #1f1f1f",
" 1 c #565656",
" 2 c #1a1a1a",
" 3 c #0b0b0b",
" 4 c #343434",
" 5 c #4f4e4e",
" 6 c #2f2f2f",
" 7 c #525151",
" 8 c #8a8989",
" 9 c #1c1c1c",
" 0 c #4f4f4f",
" a c #585858",
" b c #5d5d5d",
" c c #474747",
" d c #333333",
" e c #242424",
" f c #262626",
" g c #999999",
" h c #dfdfdf",
" i c #3d3d3d",
" j c #0c0c0c",
" k c #121212",
" l c #ebebeb",
" m c #363636",
" n c #232323",
" o c #272727",
" p c #bbbbbb",
" q c #838282",
" r c #848484",
" s c #ebeaea",
" t c #afaeae",
" u c #0d0d0d",
" v c #c5c5c5",
" w c #656464",
" x c #1e1e1e",
" y c #222222",
" z c #161616",
" A c #959595",
" B c #525252",
" C c #585757",
" D c #696969",
" E c #686868",
" F c #282828",
" G c #fbfbfb",
" H c #d6d6d6",
" I c #343334",
" J c #8b8b8b",
" K c #0e0e0e",
" L c #131313",
" M c #fafafa",
" N c #727272",
" O c #8d8c8c",
" P c #a5a5a5",
" Q c #fefefe",
" R c #2e2e2e",
" S c #212121",
" T c #626262",
" U c #2c2c2c",
" V c #9d9d9d",
" W c #1b1b1b",
" X c #191919",
" Y c #616161",
" Z c #0f0f0f",
" ` c #292929",
".  c #4f4e4f",
".. c #4e4e4e",
".+ c #383838",
".@ c #737272",
".# c #e5e5e5",
".$ c #535253",
".% c #4a4a4a",
".& c #141414",
".* c #1d1d1d",
".= c #525152",
".- c #5b5b5b",
".; c #fcfcfc",
".> c #353434",
"., c #4b4b4b",
".# $ p p p p p p p p p p p $ H ^",
" D K K K K K K K K K K K K K j ^",
" N @ R.. I 1 7., B.+.= 5.> @ z ^",
" r ] a C d J Y.@ * g J w.- % m ^",
" V K < 9 k L W 3 W.& j < Z - T ^",
" ~ 3 u Z ( ( ( & E { ( / < ] g ^",
"   < u e l l l l t l s.* j ] h ^",
" ^ c Z . _ E 4 4 4 4 O Z Z i ^ ^",
" ^ ! / L.$ 8 z z.& L ` L } P ^ ^",
" ^ Q ( z z q ) 2 | e o [.% G ^ ^",
" ^ ^ v } X y , & U S f F : ^ ^ ^",
" ^ ^ ^ > W.* n.  y x S = ^ ^ ^ ^",
" ^ ^ ^ Q b | + + + | 0 M ^ ^ ^ ^",
" ^ ^ ^ ^.; ; | e + ' # ^ ^ ^ ^ ^",
" ^ ^ ^ ^ ^ ^ V 6 A ^ ^ ^ ^ ^ ^ ^",
" ^ ^ ^ ^ ^ ^ ^ ^ ^ ^ ^ ^ ^ ^ ^ ^",
};